/* XPM */
static char *_821fac48d4a49f9bdd9099759cbc9a5nuYdWCGSO8hhDxej[] = {
/* columns rows colors chars-per-pixel */
"64 64 256 2 ",
"   c #122E33",
".  c #263A3A",
"X  c #2B362D",
"o  c #0B1D2E",
"O  c #2C463C",
"+  c #063545",
"@  c #163948",
"#  c #14344E",
"$  c #2A3A47",
"%  c #2E3D50",
"&  c #1A3F64",
"*  c #17454A",
"=  c #194556",
"-  c #1C5356",
";  c #0C434D",
":  c #2B454B",
">  c #35474A",
",  c #254957",
"<  c #384956",
"1  c #295659",
"2  c #375458",
"3  c #2D524E",
"4  c #34615C",
"5  c #254C63",
"6  c #295666",
"7  c #345968",
"8  c #375D72",
"9  c #3B4D63",
"0  c #366668",
"q  c #3A6475",
"w  c #37757B",
"e  c #2D6B6D",
"r  c #1C5C69",
"t  c #47554B",
"y  c #414D59",
"u  c #4B5C5D",
"i  c #465559",
"p  c #555B59",
"a  c #454C48",
"s  c #5A655C",
"d  c #4D6355",
"f  c #64635D",
"g  c #4A5D64",
"h  c #455866",
"j  c #545E67",
"k  c #475C75",
"l  c #496567",
"z  c #53646C",
"x  c #5A666B",
"c  c #586867",
"v  c #477169",
"b  c #59736D",
"n  c #476879",
"m  c #536572",
"M  c #546B73",
"N  c #5B6C74",
"B  c #5B6D7B",
"V  c #556779",
"C  c #477678",
"Z  c #5A7678",
"A  c #646B6A",
"S  c #66736B",
"D  c #636C75",
"F  c #637474",
"G  c #63747C",
"H  c #6A767B",
"J  c #697877",
"K  c #747A77",
"L  c #5B847C",
"P  c #68837C",
"I  c #79867D",
"U  c #81887B",
"Y  c #81937B",
"T  c #377884",
"R  c #465F83",
"E  c #4B6786",
"W  c #566A84",
"Q  c #487785",
"!  c #5D7383",
"~  c #587989",
"^  c #5B7B94",
"/  c #647482",
"(  c #637B84",
")  c #6B7B84",
"_  c #6A7D8A",
"`  c #65788B",
"'  c #737D85",
"]  c #687B96",
"[  c #6B758D",
"{  c #6B7DA2",
"}  c #478488",
"|  c #5B838B",
" . c #588788",
".. c #5C8893",
"X. c #5A9396",
"o. c #4E8C93",
"O. c #6C838B",
"+. c #698788",
"@. c #73848C",
"#. c #798887",
"$. c #69948D",
"%. c #78938B",
"&. c #6C8494",
"*. c #678898",
"=. c #738693",
"-. c #758A94",
";. c #7B8C94",
":. c #748A9B",
">. c #7A8D9B",
",. c #768699",
"<. c #68959A",
"1. c #7B9394",
"2. c #7C939C",
"3. c #769899",
"4. c #73A39C",
"5. c #6C8DA3",
"6. c #778CA4",
"7. c #6B99A4",
"8. c #7C94A4",
"9. c #7798A8",
"0. c #789BB4",
"q. c #69A4A9",
"w. c #7AA4A7",
"e. c #77A9B4",
"r. c #79B5B4",
"t. c #75B1AA",
"y. c #5694A2",
"u. c #3C818A",
"i. c #828B89",
"p. c #87968B",
"a. c #828D94",
"s. c #848E9A",
"d. c #83949C",
"f. c #8C9C9C",
"g. c #869796",
"h. c #929B98",
"j. c #949B8D",
"k. c #88A39D",
"l. c #97A79B",
"z. c #A4A898",
"x. c #8295A3",
"c. c #859BA3",
"v. c #8B9BA4",
"b. c #879AAA",
"n. c #939CA4",
"m. c #939EAA",
"M. c #849CB2",
"N. c #899CB2",
"B. c #8893AB",
"V. c #8BA2A4",
"C. c #8CA3AB",
"Z. c #86A9A8",
"A. c #94A4A6",
"S. c #9AA5A4",
"D. c #93A4AB",
"F. c #9AA5AC",
"G. c #94ABAC",
"H. c #9BACAC",
"J. c #96ABA4",
"K. c #89B4A9",
"L. c #98B4AC",
"P. c #8DA2B4",
"I. c #88A6B7",
"U. c #95ABB4",
"Y. c #9BACB4",
"T. c #95A8B9",
"R. c #89B7B6",
"E. c #9DB3B3",
"W. c #9CBBB4",
"Q. c #9DB3BC",
"!. c #9CBBBC",
"~. c #93B6B7",
"^. c #A2ACA8",
"/. c #A6B6AC",
"(. c #A2ACB4",
"). c #A3B4B3",
"_. c #A4BBB5",
"`. c #ABBBB4",
"'. c #A3B5BB",
"]. c #A4BCBB",
"[. c #ABBCBC",
"{. c #AAB5B7",
"}. c #B2BDB8",
"|. c #B1BEAE",
" X c #A29EB7",
".X c #99C4BA",
"XX c #87C1B8",
"oX c #ACC3BC",
"OX c #A8C6BB",
"+X c #B3C3BD",
"@X c #B8C6B9",
"#X c #B6C6B1",
"$X c #C3CFBB",
"%X c #9AADC3",
"&X c #9AB6C5",
"*X c #8AB5C4",
"=X c #ABBCC2",
"-X c #A6BAC6",
";X c #B2BCC3",
":X c #A5B9D2",
">X c #9AC6C7",
",X c #94CCCC",
"<X c #ADC2C4",
"1X c #A9C7C7",
"2X c #B3C4C4",
"3X c #B3CBC4",
"4X c #BBCBC3",
"5X c #B4C4CB",
"6X c #B4CACC",
"7X c #BBCCCC",
"8X c #BBC4C6",
"9X c #A9D2C9",
"0X c #BAD3C9",
"qX c #AAC7D4",
"wX c #BCCDD4",
"eX c #B5C8D5",
"rX c #BCD3D4",
"tX c #B8D6D6",
"yX c #A6D3D6",
"uX c #BBE4D7",
"iX c #B9E4E6",
"pX c #B1DCE2",
"aX c #C4CCC7",
"sX c #C3D3CC",
"dX c #C9D8CA",
"fX c #D6DACA",
"gX c #C8C7D2",
"hX c #C3D5D3",
"jX c #CAD4D3",
"kX c #C4DAD4",
"lX c #CBDBD5",
"zX c #C3D4DB",
"xX c #CDDCDB",
"cX c #C5DCDB",
"vX c #D3DDD6",
"bX c #CAE4D9",
"nX c #D3E4DD",
"mX c #DCEADE",
"MX c #D7E6D8",
"NX c #D2E4CE",
"BX c #E3E7D7",
"VX c #E9F2DC",
"CX c #E2EACD",
"ZX c #C5DAE3",
"AX c #D3DEE4",
"SX c #CDE6E3",
"DX c #D7E8E6",
"FX c #DAF3E6",
"GX c #DCEDF4",
"HX c #D3F5F5",
"JX c #E6EBE9",
"KX c #E7F5E7",
"LX c #F2FCEC",
"PX c #E6F7F5",
"IX c #F3FCF5",
"UX c #E5EDF3",
/* pixels */
" ... .<. ...C | ~ C n ~ ~ n ~ ~ Q 7 7 , q q 6 - q 1 0 *., , , 8 6 = 5 = = = = = = * @ @ @   + 5 + & = + + Q e   @ @ = , # @ # # ",
"w.3.w.w.<...7.w.| | ~ | *.~ ~ *.*.C ~ n n n Q q 0 , C <.7 1 6 7 6 6 q 5 5 5 5 5 , , , = @ 7 8 , & + , ..5 = ; - * , 7 q ~ = , 7 ",
"Z.w.Z.w.w.3.R.R.3.3.~.3.*.9.9.*.~ | ~ *.....*.~ ..Q q 8 n q Q q 8 8 6 q q q q q 7 2 1 1 1 <.<.= 2 @.W.qX^ q 7 1 , 5 7 8 ^ 6 7 n ",
"~.!.K.~.Z.Z.w.Z.3.~.HX~.3.I.w.9.9.3.*.*.*.<.| ~ iXqXq ~ Q Q *.~ n q | Q q q n n C n n 0 0 7 C $.).`.@X7XB n ~ Q 8 7 6 5 ~ 9...Q ",
"g.3X3XOX]._.W.W.L.L.9X1XZ.~.Z.Z.Z.Z.Z.w.3.3.3.3.9.9...........Q Q I.&XQ Q ~ ~ Q ~ Q C C C +.L.3X}.@X|.4X` E ^ ^ ^ ^ ~ n E 5.I.5.",
"%.0X0X0X3X3X+XoX3XOXOXL.1XOXW.OXW.W.L.L.L.Z.Z.Z.3.<.<.w.R.<.<.<...yXpX..........*.| <.&X-.%.A.h.[.+X+Xf.k E R ^ ^ ^ 5.I.^ *.0.5.",
"I 0XdXsXdXsXsX0X4XOX3XkXL.W.OX3XOXOXOXOXW.W.W.L.R.K.Z..X~.R.Z.w.3.w.w.7.7.7.7.9.c.].SX6X@.O.c.c.D.5X'.l ] R E 8 E *.*.^ ^ *.0.9.",
"S /.NXNXNXNXlXdXdXkXFXbX#.#.W.tX3X3XOXOXOXOX_.W..X.XK.K.L..XZ.R.~.R.R.!.R.Z.Z.K.kXDX2Xv.Z ( =.c.Q.ZXQ.! ^ E R ~ ^ ^ 5.9.*.~ 8.T.",
"c J.VXCXCXCXVXBXJXlXlXJ.k.+.3.Z.~.6X6XrX3X3X3X3X+XOX@X4XkX).1.3.w.~.1XOXL././.0XnX3XZ l &.( 2.'.7X6XN n ` { E 5.^ ^ *.9.B._ >.,.",
"l g.dXVXCXCXBXBXdXjXlXg.-.c.:.*.-.1.1.].kXbX0XkXlXdXNXKX}.H.<X-.&.8.2.J.`.@XMXMX`.g.l ~ &.&.d.<XrX<X( ` ! ] ] k k E 5.` x.(.m.s.",
"u p.aXVXVXfXaXfXaXjX{.g.-.2.8.8.>.O.1.L.%.G.kXbXdXvXdX@Xl.hX&X&.6.>.;.k.l.hXxX).E.V.M *.&.>.].J.6XQ.O.=.! W ,.] *.W ] 6.v.s.;Xh.",
"l S /.fXCX#X#XvXvX}.n.n.d.d.b.8.2.-XSXG.b b +._.aX4X`.J.4X<Xb.:.>.d.2X2X+XxXH.J.6X+.! &.-.-X7X#.b.C.&.=.6.&.,.,.*.M.! _ v.H ' g.",
"z k.aXNXCXz.l.mX}.h.n.F.F.A.D.=XtXbXV.l M Z ( ! v.[.[.[.oXY.V.d.S.aXsX@XvX@X8XzX3.! ! :.Y.rX2XJ 2.:.! &.x.T.:.8.:.8.:.=.F.H p S.",
"2 g K #XfXj.j.8X^.^.^.S.(.}.aXSX3Xk.M ! l h V ` / B v.-X=X).S.}.vXvXaXdX@XjX5X_ *.~ *.U.].5X`.N _ 6.,.:.P.c.2.8.8.C.>.) a.i.p.p.",
"$ i K /.dXU K @X@X/.@X@XdXvX@X4X1.1.+.! B n ! :.:XW ^ 6.b.F.dXBXBXaXfXaX8X=X,.n ~ ..C.U.H.2X/.c ! M.M.N.Q.-.C.c.U.c.d.).i.p.h.K ",
"$ @.jXaX/.s A ^.aXMXdXMXvX|.#Xl.V.V.1.-.&._ O.>.b.6.6.:.U.DXBXfXaXaX}.h.f.s._ W *.I.&XC.H.4XJ.c B N.T.U.<XO.Y.c.V.d.#.p.^.#.A K ",
"h < x h.l.K A l.|.MX|.#X@X/.@XJ._.U.C.V.D.C.V.v.v.D.-XwXGX7X@XaX`.S.g.a.).A.d.@.Y.-X-X=X`.@Xg.J M N.=X]._.F V.2.d.#.> K #Xj.A h.",
"h < j g.jXc p #.l.lXj.|.$Xi.dX4X[.5X<X[.).)._.[.7XhXxXnXsX2XsX+XH.H.S.S.A.S.H.(.=X=X-X(.4X@Xp.c h ) J.3XL.b ;.;.;.#.P #.Y S A A ",
"m ,.;.v.h.p i s i.+XI /.@XS aX4X`.xXlXlXsXjXlXlXnXDXnXnXlX4X`./.`.[.+X+X2X2X[.[.'.=X5XwX4X#XJ u 2 -.].0XJ.c G ;.J J p.l.A s #.) ",
"j V h s.g.A a s I g.K S.^.S {.S./.DXDXnXmXnXvXlXvXnXbXsX4X+X0X4X4X4X7X7X7X7X7X7XzXzXzXzX4Xl.H.#.h B k.3Xl.u z -.z x I @X^.i.#.a.",
"< $ y j @.F c u #.#.#.#.f.u f.g.i.jXlXxXlXjXdXlX4XsXsX4XxXlXlXDX7X7X7XoX7XhX[.5X=X7X-X'.lXl.d O < N J.+XJ.b z G H J i.j.j.I K A ",
"% $ G ' #.x > > F ' H ' a.u #.a.I ^.).^.{.^.^.).f.A.A.f.F.H.).{.F.^.F.k.a.g.g.f.A.n.d.D./.l.l.F y x J.J.c b g G x a.h.l.A X p ' ",
"< V V d.Y.@.i J z ) ) ) H u x @.@.A.A.H.E.A.V.A.d.a.;.d.;.d.v.n.A.F.A.f.V.f.F.A.g.d.x.=X/.p.%.c > $ b g.g.J < g N ).I S I s p ' ",
"h h < h N v.z i j @.;.@.m h y ) H d.d.2XhX5X[.=X(.F.G.(.A.{.2X2X7X7X7X[.[.H._.F.a.g.;.F.J.s X . @.;.F p.c u j 2 x g.S @Xl.s A H ",
"% < < < ) d.m z B B =._ z g h G ) / H wXcX7X7XkXhXhXhXlXlXbXFXDXPXkX7XhXDXhX7X2X[.+X@XsXl.p.p.J < y c k.#.+.m y A.8XjXg.i.c #.D ",
"h / ,.m ` >./ B m ) =./ ) ;.v.) / ) / D.[.hXPXnXlXDXFXnXmXmXKXDXL.F u H UXDXSXnXDXdXdXdXj.l.p.u : . > b F i < z F.{.h.c   p n.a.",
"<   < m / x.>.=.x.=./ ) =.=.>._ =.=./ @.A.].zX[.E.7XnXDXDXKXFX0XH.;.J J xXkXxXSXsXsXMX$XY t X > c.c.N +.%.c z v.zX=XF.#.x H x a.",
"% h h / m P.T.2.Q.U._ _ _ x.=.-.&.&._ >.O.C.Q.E.V.V._.nXxXsXbXlX0XoXE.H.).E.2X7X{.@XdXY d I K x G i $ u ;.) ;.=XwXa.a.^.a.> i H ",
"9 ` k W :.:.x.T.%XT.b.-.=.O.b.:._ &.8.N.2.2.C.E.'.V.A.<XrXsXkXkX0X3XH.].7X2X2X7Xg./.dX$X$X/.#.u i i : m b.v.) H.5X@.a.a.#.D j ' ",
"k h 9 ` 6.:.x.%X>.8.Q.U.D.-.8.N.b.N.N.b.P.U.U.G.U.!.Q.G.G.[.].3XcXkX<XoX<X3XSXhXP /.#Xj.t X X c f.) h % m '.=XzX;Xa.) n.F.D u f.",
"N.! ! W k ` 8.P./ / -X<XD.@.N =.&.~ W W V ! ~ ! O.O.3.G.L.G.oX<X0XOXOX<X3X].cX[.J %.@XY s t c #.i > 2 9 B @.2X2Xn.f.) #.' D N ;.",
":XV ` ,.8.qXeXN.B B Y.6X'.d.N O.N.9.*.~ ~ +.3.U.~.qX1XK.1XcXcX3XrXSXcXV.1.2X7Xg.J J }.@Xp.i.7X{.F i B W B -.`.4XF.D i a.F.a.D H ",
":X` ] ~ W V ] ` ! m >.;XzX[.J N ( ! O.O.+.3.qX1X1X1X&X$.Z..X].]._.2X2XE.;.^.kXg.N N A.wX).wX;X) v.x.:.&.-.2X@Xp.#.H z x v./ j a.",
"&X6.6.] W n V k ] h _ T.zXDX7XV.c.C.+.! ( Z.tXyX1X9XyX.XR.1XOX_.H.g.f._.hXxX+Xg.g.x H 5XZXeXG d.N.N.N.b.=.A.$Xz.S.(.' y N a.H m.",
"eXM.6.P.8.N.M.P.6.M.P.%X%XeXGXDXGXGXGXZX1X1XyX>X9X>X.X.XK.K.4.k.l.}.DXIXIXmXl.%.@.B m d.-X-XU.T.P.P.P.P.eXDXBXj.i h < y @.Y.v.s.",
"qX%XP.%X%X&XM.N.*.M.0.I.N.8.c.O.#.;.%.1.3.R.yX9XXXXXK..X9XuXuXFXnXDXDXmXDXMX/.#.@.@.@.C.C.Q.~.T.%XT.N.c.5X`.U S j d.' y y y v.@.",
"T.:XT.P.b.! B *.M.k E 8 n 2 7 l c H.).1.!.>X>XR.K.K..X9XbXbXSXbXbXnXlX4XsXkXhX6XtX6X-XQ.~.~.&X&X:X&XT.v.S.lX^.p (.5Xv.m $ ;.D./ ",
"b.1XT.( M 2 : < ~ @ , , 1 2 | f.j.KXIX0XtX>XR.,XiXiXtXW.G.f.1.g.W.L.L.].].G.].bX1X1X!.!.~.R.~.&X&XI.T.;XDXaXh.#.f.' h $ m N @.=X",
"c.<X-XO.Z ( M , @ @ : 7 l l 4.OX|.KXKXkX9X9XR.r.r.R.!.1X!.!.~.Z.w.<.| +.~ C Z $.+. .Z Z v v  .9.*X%XY.;XaXh.#.#.G < : h z g B eX",
"( 1.U.b.O.z 2 3 M l 3.2 v v K.0X@XLXLXDXtX>X>Xt.q.<.X.*. .|  . .X.7.<... .<.| 2 3 4 Z +.Z l l Z M.qXAXUXIXmXaXg.< B @.G v./ j -X",
"( -X!.d.G G M 2 l 2 l Z Z.L K.9XNXLXLXnXiXyX>Xr.e.q.7.} } Q Q } Q q.,Xw 1  .Z.g i [.GXPXPX7X5XSXIXPXGXAXjXxXSXGXwXd.z j B c.B z ",
"G <XrX=Xd.1.H g > > 2 Z Z.$.K.OXlXKXLXbXtXyXyXyXyX,Xq.o.o.} Q T w T y.e e 0 G.G.DXUXAXjX;X8XjXAXxX7X;X;X[.[.{.=X;XzXM h _ -.b.;.",
"g.P %.J.hXoX).J.1.O.l Z 3.4.R..XkXKXKXbX.XR.R.,Xr.r.r.q.*Xe.y.o.T u.w - 4 3.SXGXjX8XF.(.(.(.(.Y.(.(.F.F.F.F.F.U.v.Q.;Xz _ m m Q.",
"O l J.H.].).E.].=XE.+.-.w.$.w..XdXKXKXbX>XR.r.r.7.X.7...<.X.o.T T w e X.>XHXrX7XF.{.n.n.F.n.v.n.F.m.v.f.@.;.d.v.U.>.Q.C._ c.x.U.",
": >.ZXZXQ.O.) N M Z ( -.Z.K.R.~.+XMXFXbX.Xt.X.o.w <.I.7.9.<.Q 6 r e 6 iXPX!.H J #.i.' n.v.n.@.@.a.g.a.@.' ;.;.;.-.-.O.!.M B c.C.",
"( z _ U.-X>./ N G -.!.1XZ.w.>X.XOXNXbX9XR.r.r.r.*X>X*X,Xe.e.7.X.y.e 7 HXeXY.d.x H A x s.s.a.D D J ' H N H @.;.@.O.( M x.2._ C.b.",
"> $ u F [.GXSXrXrX'.V.3.$.v  .$.k.kXbXK.4.<.r.XXr.q.} } e T T w T - q T.V s.H S c A A i.#.K p p c A x u N H ) ) B N h -.U.-XeXC.",
". g G.rX<X<X7XGXSXrXV.+..X.Xw.3.K.bXFX.X4.C } } w } o.} } w w o.e ; n I.,.=.C.E.).{.i.S K K p t p c p t c F J G z z g 2.C.=XQ.Y.",
"M >.Y.zXwX6XG.E.'.1X<X].].rXcXrXkXOXuXW.$.C e 4 e - e - 6 = - = + ; 5 8 <.I.e.q * Z.nXI I f f X t p p a S J A z z u > A.C.U.D.C.",
"2 M z -.].<X<XV.V.c.C.!.2.G.!.OXOXOXSXK. .0 1 * ; -   o * <.r.7.q.Q = ; ; o + + + , FX|.I A f U ^.j.K s J c A i.i > u f.f.f.V.H.",
". . . i b g.L.k.+.~ +.*.*.~ ~ Z P 3XuX1XR.4.X.} 0 * Q <.7.r.e.R.7.X.o.o.C w q = @   /.fXK A K ^.S.}.8X`.S A p p s X p /.}.}.aXxX",
"g.2   > P ].P z h h 2 * 0 2 2 l %..X9XK.w.<.4.<.0 * Q C .. ...C C C  . .C  ...1 @ . p.fXK p i.f.a t I @Xi.p p K i.X a aXJXJXvXaX",
"Q.;.> B U.wX!.U.E.f.%.%._.%.#.b b +.3.b 4 4 1 - - *   * 1 3 0 v 3 3 2 3 3 2 2 2 Z Z l.MXK j a.S.JXJXIXJXp.t > +XnXa a aXmXsXvX@X",
"m > h =.T.eXtXY.E.+X7X3XhXkXxX0XOXOXL.v 4 v 0 0 0 1 * >XpX* * 3 b #.L.OX3XrXbXFXFXPXIX$XA D ) =XIXJXIXPX#.> c FXDXu > +XPXDX7XjX",
". o > g g 2.=X<XV.G.U.V.!.<XL.V.OXOXbXuXv 3 0 0 , * * 1 C 0  .tXKXLXIXLXKXKXVXKXFXKXLX#XS ) m d.hXSXDX[.z . J =Xd.2 : O.-X1XtX1X",
"u g >     i N G.U.G.G.!.Q.~.3.Z.W.W.OXK.2 3 R.pX<.7 - - * C HXFXMXCXCXfXfXBXVXKXJXaX#XU t N B ( -.-.;.z < < j -.:.:.` V 9.I.*.0.",
"Q.D.G     G '.G.E.G._.3XH.G.W.+.L Z v O v tXW.G.U.qX .0 4 v $.%.i.U z.fXVXVXVXVXMX@Xl.I K ) O.=.6.6.,.` ,.` ~ ~ ~ *.*.^ 5.5.9.&X",
"B B :   2 z A.hXG.E._.[.f.%.J.J Z b P P 1X6XZ G 8.qX>X .0 L %.d O p @XLXKXKXKXKXMXMXMXmXnXzX<X-XN.P.6.&.~ 5.9.5.9.5.5.9.5.0.9.0.",
"  > F Z u > u c E.<X2X<XE.].Y.Y.'.G.Q.G.1.Z +.( +.+.9.w.v Z +.b l.mXKXIXBXmXmXmXmXMXnXnXDXDXDXSXZXU.! >.&XN.9.M.M.9.9.I.5.I.5.*.",
"  F A.E.c $ 2 N ].7XhXzX6X5X6XwX(.{.5XA.c.-.+.v b b P 3.k.k.OXkXPXIXDXvXjXjXlXlXlXlXhXhXrXrXrXtXZXwXU.tXtXeX-XT.8.N.M.9.M.I.6.6.",
". > z m 2 < G v.zX'.D.Y.wX5X7XUX8XhXxXDX3X3XOXOX0XdXMXmXFXFXFXmXlXnXxXhXxXhXwX7X2XwX<XeXE.6XcX6Xd.z O.tXeX-XeX-X:XT.&XT.P.,.8.6.",
"2 o $ % $ m B >.T.-._ -.d.'.'.H.8XaXjXxXDXFXKXKXFXMXMXMXlXsX7X6X6X7X5X'.<X=X=X-XQ.-XT.b.'.eX1X'.V.2.1X1X&XP.Q.P.T.T.:X:X8.N.N.] ",
"] :XW W V ! 6.] ` h % > % >.=X;X-X=X;X;XjXgXgX8XoXoX8X8XgXeX:XqXQ.Q.D.2.v.C.D.T.T.` k 8.<X1X@.M 8.x.C.-X8.8.P.N.6.N.:XT.B.x.[ [ ",
"] GX{ E ] ] W W k 9 9 V V =.U.'.C.m.m.n.gXgXgXgX[.'.(. X X XT.P.N.b.-.Z @.-.2.x.T.%XP.%XqXY.B N ! B :.&.` ] T.%X] 8.T.>.[ ] / ,."
};
